<svg version="1.1" id="Layer_1" xmlns="http://www.w3.org/2000/svg" xmlns:xlink="http://www.w3.org/1999/xlink" x="0px" y="0px"
	 width="100%" viewBox="0 0 500 500" xml:space="preserve">
<path fill="#040720" opacity="1.000000" stroke="none" 
	d="
M0.999994,480.468933 
	C4.867361,474.455200 9.027784,469.090027 12.554427,463.336365 
	C34.950008,426.798279 57.248646,390.200531 79.493927,353.570648 
	C97.947998,323.183533 116.243492,292.700165 134.685165,262.305481 
	C153.382156,231.490036 172.171005,200.730316 190.936432,169.956436 
	C191.171677,169.570679 191.628998,169.320328 192.697144,168.373306 
	C211.043152,198.279297 229.248489,227.955994 247.677155,258.233704 
	C248.057755,259.297333 248.135513,259.808289 248.383530,260.215637 
	C296.181335,338.715912 343.995728,417.206177 391.769379,495.721130 
	C392.751678,497.335480 393.266876,499.234039 394.000000,501.000000 
	C263.000000,501.000000 131.999985,501.000000 1.000000,501.000000 
	C1.000000,494.257019 1.000000,487.597412 0.999994,480.468933 
z"/>
<path fill="#3097C0" opacity="1.000000" stroke="none" 
	d="
M394.468628,501.000000 
	C393.266876,499.234039 392.751678,497.335480 391.769379,495.721130 
	C343.995728,417.206177 296.181335,338.715912 248.383530,260.215637 
	C248.135513,259.808289 248.057755,259.297333 247.906189,258.480835 
	C251.851944,249.927322 255.921036,241.786667 259.701263,233.514008 
	C265.123627,221.647629 270.333984,209.684402 275.637146,197.763565 
	C285.451019,175.703171 295.200714,153.613937 305.104187,131.593857 
	C311.866791,116.557365 318.859802,101.624603 325.719360,86.631531 
	C328.364288,80.850327 330.925079,75.030640 333.899353,68.391197 
	C334.986359,69.871857 336.088104,70.938194 336.675140,72.237144 
	C345.858246,92.555824 354.957245,112.912468 364.111176,133.244370 
	C376.203979,160.103851 388.345764,186.941315 400.432465,213.803558 
	C409.379852,233.688797 418.254059,253.606979 427.194824,273.495209 
	C439.199341,300.198578 451.236511,326.887299 463.259766,353.582245 
	C472.279022,373.607483 481.248169,393.655548 490.344849,413.645569 
	C493.564117,420.719971 497.094696,427.652740 500.741577,434.325073 
	C501.000000,456.277039 501.000000,478.554077 501.000000,501.000000 
	C465.645966,501.000000 430.291626,501.000000 394.468628,501.000000 
z"/>
</svg>